<svg width="38" height="38" viewBox="0 0 38 38" fill="none" xmlns="http://www.w3.org/2000/svg">
<rect x="0.5" y="0.5" width="37" height="37" rx="18.5" fill="#F62D00" stroke="black"/>
<path d="M28 19.5C28.2761 19.5 28.5 19.2761 28.5 19C28.5 18.7239 28.2761 18.5 28 18.5V19.5ZM9.64645 18.6464C9.45118 18.8417 9.45118 19.1583 9.64645 19.3536L12.8284 22.5355C13.0237 22.7308 13.3403 22.7308 13.5355 22.5355C13.7308 22.3403 13.7308 22.0237 13.5355 21.8284L10.7071 19L13.5355 16.1716C13.7308 15.9763 13.7308 15.6597 13.5355 15.4645C13.3403 15.2692 13.0237 15.2692 12.8284 15.4645L9.64645 18.6464ZM28 18.5H10V19.5H28V18.5Z" fill="white"/>
</svg>
